<mxfile host="app.diagrams.net" modified="2021-06-16T14:37:52.872Z" agent="5.0 (Windows NT 10.0; Win64; x64) AppleWebKit/537.36 (KHTML, like Gecko) Chrome/91.0.4469.4 Safari/537.36" etag="07UsXbkWaz1-5L94KYsV" version="14.7.8" type="github">
  <diagram id="xJDZHXKFKM7L-dFiun-C" name="Page-1">
    <mxGraphModel dx="2249" dy="1931" grid="1" gridSize="10" guides="1" tooltips="1" connect="1" arrows="1" fold="1" page="1" pageScale="1" pageWidth="827" pageHeight="1169" math="0" shadow="0">
      <root>
        <mxCell id="0" />
        <mxCell id="1" parent="0" />
        <mxCell id="0Sa0RzDgu2V99FZ1Wu_b-1" value="" style="shape=image;verticalLabelPosition=bottom;labelBackgroundColor=#ffffff;verticalAlign=top;aspect=fixed;imageAspect=0;image=data:image/png,iVBORw0KGgoAAAANSUhEUgAAAy0AAAQpCAYAAADMJuKeAAAAAXNSR0IArs4c6QAAAARnQU1BAACxjwv8YQUAAHmDSURBVHhe7d1/sGR1fSf8M4s/eKKZgkdXGCwpjTrKDGvkQj2PCVsBirWAFVMxPygn6sCuIRgNIfJjqI1kgQSNjCNmRGsl+AfMWhklPokuWGB0EsiGVEzJRSlmxIn5sZPIj11dqBFThA3Ow/tMf4dDe2/P7Tu37/129+tV1XO6z+3bt3v63tPnfT6f7/c0AAAAAAAAAAAAAAAAAAAAAAAAAAAAAAAAAAAAAAAAAAAAAAAAAAAAAAAAAAAAAAAAAAAAAAAAAAAAAAAAAAAAAAAAAAAAAAAAAAAAULFVveXIzczMXLZv376fe/rqq1etWvV/718LAACMk6f36f/304u/fnqf/v+bnZ390P61o7UsoeWEE074ytMv6v/p3QRW0I/+6I82xxxzTLNmzZr2ei65/prXvKb5P//n/zTvec97evcEABjs6QDzV/fee+//27s5MiMPLamwPL3YfPjhhzebN29u1q9f3xxxxBH7vwhU5X/9r//VnHnmmc2//tf/urnjjjt6awEAnvHYY481O3fubDZt2tQ88cQTWbVp1BWXf9VbjkyvJawNLCeffLLAAgAAYyz789mvz/59lP39URp5aHnaq/PPunXr2hsAAMD46+zft/v7ozTy0FIG3R955JHtbQAAYPyV/fvlmGRrOSotAAAAiya0AAAAVRNaAACAqgktAABA1cYutFxxxRXtBQAAmA4qLQAAQNWEFgAAoGrVhZY3velNzS233NIuTzzxxPZy/fXX9776w8p9ity3rDv//PPbi3YyAAAYX1VWWq699trmIx/5SHPPPfc01113XXPTTTe1QaZfgs1ZZ53V3i8SWHLf3M7l7W9/ezM7O9t+DQAAGE9VhpbzzjuvWbt2bXv9lFNOaYPJfffd194uUkE55phjmmuuuaa3pmnuuOOO5vLLL+/d2v+9MzMzvVsAAMA4qjK0HHXUUb1rc7v99tvbCsqNN97YW7Pfww8/fNDvBQAAxstYDMR/5JFHnhVGUnnJpTuWpch9gcX5h3/4h941AIB6VDumpchYllRVzjjjjN6a/dIWltavjGspEmTm+l7g4P7+7/++ufrqq9vrr3rVq9olAEANqgwtGZdSZgBLCMlg/DLGpau0h+V+d91114EgU74342ByW8sYDJbActFFFzX/+I//2LzhDW9otm7d2vsKAMDKW9VbjszToWFflmWGr4NJ5eTcc89tzjnnnN6aQ7PUjweTpj+wfPSjH20OO+yw3lcBAOaXQkHMzs6ONFeMxZiWhcqUx92pkXM7g/MFFpibwAIAjIOJCi0XXnhh86UvfelAe1g5ZwvwwwQWAGBcVNceBoyewAIALAXtYcBICCwAwLhZtkoLUBeBBQA4VCotwMgILADAODGmBQAAWBSVFgAAgKcJLQAAQNWEFgAAoGpCCwAAUDWhBQAAqJrQAgAAVE1oAQAAqia0AAAAVRNaAACAqgktAABA1YQWAACgakILAABQNaEFAAComtACAABUTWgBAACqtqq3HJmZmZl9Wd5zzz3t7Umxbdu2ZseOHc2ePXuavXv39tYCwPR4znOe07z2ta9tL8cdd9yB68D0OPHEE9vl7OzsSHOF0LIIGzdubHbu3Nm7BQAU73znO5t3v/vdvVvApBNaKpUKy9atW5vDDz+82bx5c7N+/frmiCOO6H0VAKbHE0880TzwwAPt5Rvf+EZz2223tet//Md/vLnsssva6gsw2ZYrtBjTMqS0hEUCy8knnyywADC1cgDv9a9/ffPWt761ufrqq5vf+73fa1796lc3X//615u3v/3t7W2ApSC0DCljWGLdunXtEgDYL0dcP/3pT7chJm644YbmF37hF5o777yzvQ2wWELLkMqg+yOPPLJdAgDPltawj3/8420L9d/+7d82l1xySfO+972v+fa3v927B8BwhBYAYMm94Q1vaMeB/vqv/3rz3Oc+t7njjjuan/3Zn21uvvnm3j0AFk5oAQBG5h3veEfzR3/0R81ZZ53V/Mu//Evz0Y9+tF33l3/5l717AByc0AIAjNSaNWuaa665pvnwhz/cvPKVr2x27drVvOc972l++7d/u/nud7/buxfA/IQWAGBZnHrqqc0tt9zSvOtd72pvf+5zn2tbxj7zmc+0twHmI7QwEueff347i0w+nACgK58Rn/3sZ5vTTjutefzxx9vTCGTd1772td49AJ5NaOFZ7rrrrjZsXHHFFb01B5dgku+5/vrre2sAYLBXvOIVzZYtW5r3v//9zUtf+tKcmK49m37Wff/73+/dC2A/oYVnue+++3rXFm6u77nxxhube+65pznnnHN6awDgh5155pntQP3zzjuvvb19+/a2Zezzn/98exsghJYR2r17d1uByKV7PZci1YncTmWjtFTlvlFu939PlO8rl26VY77vKxWRfL1cz6VUVbK86aab2uu33357+7VUXkr1pXvJushj5b6R783X8vzLc+i2h+Xxu4+R+xQHe24ATK7DDjusufDCC5tPfepTzU/8xE803/nOd5rf+q3fatc98MADvXsB00xoWSbvfe97e9f2e9Ob3tS7tt+9997blsaL7Lx3b0d24iM79SVc9Bv0fcWDDz7YXHvttb1b+wNKCSFzeeSRR3rXnnHxxRf3ri1MnlcJN0WeZze4xLDPDYDJcdxxxzUf+9jHmt/8zd9sXvSiFzV/8Rd/0bztbW9rD8z94Ac/6N0LmEZCyzI599xz23aplL3j4YcfPlBRidzO13N56KGH2h36o48++sC6mZmZ9n7ZgS8hIqX08vUcjcrXBn1f0f1ZuW/kMTMdZSnPZz79fP2UU05pW7zK/XMpj5nnnzaw3DfK81m7dm17u8j9SpC67rrrDjxOZP1CnhsA0+NnfuZn2paxt771re3tHKjLui9+8YvtbWD6CC3LpIzt6N+hL8qOf5Sd9OzAlzapstOfr51xxhnt9dKOVao2B/u+ooSOOOaYY3rX5pdQUR6v+5gJVwtR7pcQkhBUdJ9HMexzA2AyveAFL2guu+yy5pOf/GT72fDtb3+7+Y3f+I123d/93d/17gVMC6FlmZRqQreqMF+AOeqoo9plt2JSLgk/+b5cv/zyy9v7JaSkzepg37dYaQXrPmapgCxUTioWeZ7d6lIJP+XrANDvhBNOaKv6CSsJMn/yJ3/S/PzP/3y7DpgeQssyyY5/qhRlLEi3stIv1YgEg27FJJcy/qMMwu+O/YiDfd9ClODTHYgf3cfM9a7yPd2B+F0JWaWCsmHDhgOPE1k/X3gDgCKtYmkZS5tYfOITn2gPyHUPBgKTS2hZJhnLUWRHPeNHBvnCF77wQxWNEg7mUo44Dft9/fIB0P/9ZZxL5LmXAFJkPM3BdMe+FLntSBkAC5XB+Rmkn8H669ata/7mb/6mPRiYdQttWQbG06recmSe3sHdl2XaiiZBqRAs5PWk4pDKQkzK6weAWtx8883Nxz/+8eapp55qnve85zXvfve7m3e84x29rwLLoewbz87OjjRXqLQAAGMpM3N+7nOfayeoefLJJ5vf/d3fbTZu3Nh85Stf6d0DmBRCCwAwtjLT5Ac+8IFmy5YtzY/92I81O3fubCsu73//+5tHH320dy9g3AktI1Rm+dIaBgCjddpppzV/8Ad/0PzyL/9ye/sP//APm7e85S3tOmD8CS0AwMS44IILmltuuaWdUfN73/te88EPfrANMl/72td69wDGkYH4QyqDjQAAoFi9enVz7LHHNqeffno7tmpaGIgPAABjYu/evc3999/fbN26dapCy3JRaRnSMFMeAwAwHTLxw65du5pNmzY1TzzxRHPRRRdNRXhRaQEAgDFx5JFHNieffHKzefPm9vaOHTvaJUtDaAEAgCWybt26drlnz552ydIQWgAAYImk4hIZ48LSEVoAAICqCS0AAEDVhBYAAKBqQgsAAFA1oQUAAKia0AIAAFRNaAEAAKomtAAAAFUTWgAAgKoJLQAAQNWEFgAAoGpCCwAAUDWhBQAAqJrQAgAAVE1oAQAAqia0AAAAVRNaAACAqgktAABA1YQWAACgakILAABQNaEFAAComtACAABUTWgBAACqJrQAAABVE1oAAICqCS0AAEDVhBYAAKBqQgsAAFA1oQUAAKia0AIAAFRNaAEAAKomtAAAAFUTWgAAgKoJLQAAQNWEFgAAoGpCCwAAUDWhBQAAqJrQAgAAVE1oAQAAqia0AAAAVRNaAACAqgktAABA1YQWAACgakILAABQNaEFAAComtACAABUTWgBAACqJrQAAABVE1oAAICqCS0AAEDVhBYAAKBqQgsAAFA1oQUAAKia0AIAAFRNaAEAAKomtAAAAFUTWgAAgKoJLQAAQNVW9ZYjMzMzsy/Le+65p7097k488cR2OSmvZ7G2bdvW7Nixo9mzZ0+zd+/e3loW6uUvf3nz2te+tjnuuOPa5UknndT7CsDKs40/NLbxTNP+Ynmts7OzI80VQsuQhJam2bhxY7Nz587eLZbCqaee2lx22WXN0Ucf3VsDsDLOPffc5v777+/dYinYxk8foWXpCS1DmvbQkqNvW7dubQ4//PBm8+bNzbp165ojjzyy91UW6lvf+lbzwAMPNN/4xjeaL3/5y813vvOd5oUvfGFz6aWXNm9+85t79wJYXrbxS8M2HqFl6RnTwlDSLhD5MDv55JN9mC3Sq171qubss89uj7x95jOfac4444zm8ccfb6666qrm2muv7d0LYHnZxi8N23hYekILQ0l/c6xfv75dcuiOOOKI5gMf+EDbkhFf//rX2yXAcivb+FRYWBq28bA0hBaGUgZkZiPM0rrgggva5Te/+c3mqaeeaq8DLKeyjVdhWXq28XBohBaoxPOf//zmla98ZXs9vdAATA7beDg0QgtUJFNjxu7du9slAJPDNh4WT2iBiqxdu7ZdOgoHMHls42HxhBaoyGte85p26SgcwOSxjYfFE1qgIuUDzVE4gMljGw+LJ7RARVavXt287GUva5588sn25GQATA7beFg8oQUqU47EZVpMACaLbTwsjtAClfGBBjC5bONhcYQWqEyZXcYHGsDksY2HxRFaoDJlHn8faACTxzYeFkdogcq8+MUvbl7ykpc03/ve95o9e/b01gIwCWzjYXGEFqiQsyYDTC7beBie0AIVctZkgMllGw/DE1qgQo7CAUwu23gYntACFXIUDmBy2cbD8IQWqNBLX/rS5ogjjmi++93vNo888khvLQCTwDYehie0QKXKCcgciQOYPLbxMByhBSpVPtD0PANMHtt4GI7QApUqH2hOQAYweWzjYTiresuRmZmZ2ZflPffc094edyeeeGK7nJTXM6zy+pksq1evbo499tjm9NNPbzZu3NhbC0wb2/jJZBu//KZpf7G81tnZ2ZHmCpUWoNm7d29z//33N1u3bvWBBjBhbOOZBCotQ1Jpme7XP6kee+yxZufOnc2mTZuaJ554ornooot8sMEUso2fTLbxy0+lZemptADt1Jsnn3xys3nz5vb2jh072iUA4882nkkgtAAHrF+/vl3u2bOnXQIwOdatW9cubeMZR0ILcECOxkX6nwGYLEceeWS7tI1nHAktAABA1YQWAACgakILAABQNaEFAAComtACAABUTWgBAACqJrQAAABVE1oAAICqCS0AAEDVhBYAAKBqQgsAAFA1oQUAAKia0AIAAFRNaAEAAKomtAAAAFUTWgAAgKoJLQAAQNWEFgAAoGpCCwAAUDWhBQAAqJrQAgAAVE1oYWrcddddzYknntjccsstvTUATIql2saXx7n++ut7a4AaCC3QJx94+cDKB9dczj///OZNb3pT75YwBDBORrHNzmfCFVdc0bu1X0JPfs7u3bt7a54t35PPk+Jg94dpJ7QAAPSccsopzT333NNceOGFvTUH9/DDD/euAaMitAAAAFUTWhi5Uoovl5TDU0bP9aK0ZJVlLqU9q//7c+nqltRTbi/36bZw9ctzKPfLBYDFmbRtfH5Ovqc7pqWsK5fytfLc4vbbb2+vd1u+gKUjtDBS+TC6+OKLm/POO68tt+dy1FFHtRv3uVx77bXN9u3b2/ulRB+f+tSnDnxvLkcfffScHwobNmxoPvKRjxy4X8r1c32o5We8/e1vb++TnxU+ZACGNw3b+ASW/Ozuayzr00JWbp911lnt9RtvvLG9DSwtoYWR2rx5czMzM/Os3uBrrrmm/VCaSz4U1q5d27u1X/8HwJlnntnMzs62Hxhdl19++bO+97rrrms/1PoHW+ZnlA/L3D8fNHk8AIYzDdv4r33ta+3yda97XbuMvN7+1wGMltDCyOQDJx8o3Q19ccIJJ/SuPdtc9+1Ky8FNN93Uu/Vsr3/963vX9isfWo888ki7LHIUsKvc7v+ABGB+07KNL9+fgAasHKGFkev/ABlGPmS6fcT5wMtRtLks1VGvhTzfY445pncNYLqN2zZ+WAlHqfIkoJXnuZAAtJD/l0P5v4NpI7RQtQ996ENtm0HpIz7nnHN6Xzm4xR5VK/qP3hUPPvhg7xoAh2Ilt/HDyPPK80tLWmSMS5lI4GAeeuih3rVnSwgCFk5oYWTKUbEvfelL7bJrvkGa/RIQ+qsa84WJ/g+Q0od8xhlntMuFKi0H9913X7vsyodkPmje+MY39tYATKdx3cYfinw+lMH9c31GdJV2trnuV16LzxJYOKGFkUqZPwMguwMlh5nFJR9m3QGZeZz5Pgwzg02R+2cGmQzAXExLQZ53fk53yst473vf2x4VHOZoIMCkGtdt/DDynLqvr1ROuuNz8rnQH7byvPL8Mkan+/2R15IJDMpBMuDghBZGKjOs5EMtHy6lFzhHlrIhn292ma7MKpP7pRSf780Rvfn6ndNzXH5G7p+fkVlsFiPPO20A+bApj5lLBpd+4Qtf6N0LYLqN6zY+us+5XOZq+cpBqjyvcp8Ejnw+dAPHpk2b2vCVr3dDW55fnnf/z8prNDUyDGdVbzkyMzMz+7JML+gkyMYmJuX1DGupXn826mkLWIoAkGpIwkVK9qM+4jYNpv13HKaZbfzks41fHtP0/1xe69PBfaS5QqWFFZEjUpmLH4DJYxsPLDWhhZHKnPv940LKGYy7JyMDYPzYxgPLRWhhpNLPm8GJKR2WSwZeKksDjD/beGC5GNMypGyQY1o3yNP++qeB9ximl7//yec9Xh7T9P9cXqsxLQAAwFQTWgAAgKoJLQAAQNWEFgAAoGpCCwAAUDWhBQAAqJrQAgAAVE1oAQAAqia0AAAAVRNaAACAqgktAABA1YQWAACgakILAABQNaEFAAComtACAABUTWhhKKtXr26Xjz32WLtkspT3tbzPwHQpf/uPPvpou2SylPfVNp5xJLQwlGOPPbZd7ty5s10yWcr7Wt5nYLqUv/1du3a1SyZLeV9t4xlHQgtDOf3009vlpk2bmrvvvtvRuAmR9zHvZ97XKO8zMF1s4yeTbTyTYFVvOTIzMzP7srznnnva2+PuxBNPbJeT8noWY+PGjSotE2z9+vXNtm3bereAaWMbP9ls45fHNO0vltc6Ozs70lyh0sLQsrG76KKLmuOPP15f7ITI+5j3M++rDzOYbrbxk8c2nkmg0jIklZbp8nu/93vNJz7xiWbVqlXt5brrrmt+6qd+qvdVAMbRgw8+2Lz5zW9ufvRHf7S55JJL2uuwlFRalp5KCxxEwsq6deua884770Bg+d73vtcuARg/xxxzTHPDDTc0V111lcACY0JogQF++Zd/uT1K8l//639tfvVXf7W3tmk+9rGPtR92AIyHHGy69dZbe7ea5qSTTmpOPfXU3i2gdkILDOm//Jf/0nz2s59tP/x+8Rd/UdUFoHJpB8v2OgebusEFGB9CCwzp3nvvbZfPfe5zm1e84hVtTzQA9dq+fXsbXF7zmtcc6L8HxovQAgNkIH4+4LIsPvzhD7cffK973eue1TL21a9+tXcNgJpksH0qLRnHkvEswPgRWmBIqaz8/u//fhte1qxZ067LEbxLL71UuxhAJe68887mm9/8Zu/W/uCiMg7jS2iBRSoffgksH/rQh9rb+YC84IIL2vUArIwcWMr4lWyPs40Gxp/QAgOU2cOynE8qLH/2Z3/WvOQlL2lnorn44ot7XwFguaXanUp4lql+aweDySC0wCG68sor2+Xf/M3ftOEm02hGPjC7Y2EAGL1Uvcs5WAYdcALGi9AChyiD8ssHZK4XCSxZnxOXdfuqAVhaOUiUlrAiB4+cNBImi9ACA8w1e9hc+k9Slh7qHOFLiMn1tJgBsPQSWHLQKC1hqtswuYQWWGL50MwRvsxcU2YZS181AEsv52DJ9jYHic4+++zeWmDSCC2wxF74whe2yxz5S1tYtwJTzqJvNhuApZGqdrarW7ZsMegeJpjQAgPkw/Bgs4f1y4dnKi0JK/0foDkimCBjnAvA4uVkvt1taM7BIrDAZBNaYARSZcml/0RmaRcrYcYHLMDwsh3NVPPOwQLTRWiBESmBJUcDU30pRwUzxiWzinVPTpmBpAAMlm1lKtZZpmLdf2AImFxCCwyw0NnDBsn3JrDkyGAJJ6XKUma9yYdv2h0AmF9CSsaupB0sF6EFpofQAiOWUJJZbRJQ5hvHkq8l1Gh1AHi2bB+752DJ9tSMjDB9hBYYsRwJTDtYjg6Ws+UX+VoqMenNzmB/41wAnlGq0WmrzQWYXkILDLCY2cPmknDSDSyZ+rgrj989cpijivNVZQCmRbaVOQdLtqFp1QWml9ACyyyVlRw5nC8I5QO6nJCy2xIBMG2yHUwlusy8CEwvoQWW2SmnnNIuU8Hpr7hEPphL1WX37t3tEmBapMrcnZhE6ywQQgsMsBSzh/XLINKMcUkwme/IYZkZJ5civd0AkyxhJZUVE5MA/YQWWAEZ39KdrnOuQJJQU76eD+/cTusYwCTKdvDqq69ul87BAvQTWmCFpRUigWSuVrHitttua4NLgo5xLsAkSkjJLIvZHnYP6gCE0AIDLNXsYYPk8RNIMjh/vhNM5ueXD/G1a9f21gKMv/5zsHTbYgEKoQVWWI4qllawxx9/vLf2h5VqTJk6OS0Uer6BcZVtWDkHS5YAgwgtUIEcWczg/INN6dltl8jkAOn71i4GjKMyg2K2a6YzBg5GaIEBRjF72HzSFlHk5y305JI5SjloPAxAjcr07hnHIrQAByO0QGVSOUnVJdN+zjWrWFGqM6m25AJQu/5zsGQ7VlpeAQYRWqAyOfKYqksCy/bt23tr55YP+24veCouqi5AjRJYcjAml4VWkgEKoQUGWI7Zw+aSCkqOQG7YsKG35uAScsqA1iwBalLOwZKWW2e4B4YltECFMjC1zCgWCzkqmfuWcJWTUA5qLQNYbhm7kipLDqp0JxUBWAihBSpXWioWUu1J0MmYmCuvvNJOAbDicgClSHUl2zHbJmAxhBYYYDlnDxskVZO0qS2k7SvjYbrncslOwko/f2C6lHbVtLnmAnCohBaoXEJIxrjk6GQC1DBSpUnYyfcv97gcYHpl25Oqb7ZbpjMGloLQAmMglZO0WQz74Z/vs+MALLdse9KumolBTMkOLIVVveXIzMzM7MsyR3snQTnSPSmvh/FT2i7yu7jYnYGcJ6G0kAEshWybUmGxbYHp2l8sr3V2dnakuUKlBcZMdgpyLpYcweyepG2h8r0Z2K/PHFgq2S6lspJty2K2SwAHI7TAmCltF3HXXXe1y2GsWbOmXabdzAB9YCmk+vvggw+2R1wzDg9gqQktMEAts4f1S5WkzMwzrDLOJa1lw5y8EmA+2R5lm5KlKY2BURBaYEx1B9anNSOXhcqR0LSXlZ2LHCHNzgbAQqXVtMi2pLtNAVhqQguMuYSV9JHnkoGwi5GdjVRf0naWAAMwSLYX2W6YSh1YLkILDJAP5Mz8UfMHc6omOdN0AkuCy2KkzSyPkcAitACDZKB9aQMznTGwXIQWmAA5eWTaxa688sremuEk+JQjp2W60sVWbYDJlm1EDnRkeyG0AMtFaIEJkCOeOfJZZu1ZTODIY3THyWTygVSYhBcg24HuVMZpJXXCWmA5CS0wQK2zhw2SnYsEmENpactjZJBtWuNyJFXLGEyv/P07Bwuw0oQWmDAJHDkHSwLHYk8gmapLQksqNzmamvEuwHTKQZAElzJ+DmAlCC0wYbJTkTEu5fpiJbhknEs3+DjKCtOnjF3JdkVoAVbKqt5yZGZmZvZlmaO+kyCtQjEpr4fJlSOjS7mDUaZWzmNmwH8ZPwNMnlRr83mXgxfA8KZpf7G81tnZ2ZHmCpUWmFDdwJIKSfdEcIuVx0x4ufTSS3trgElTZhJc7BTqAKMgtMCEyxiXhIzshOTo6WKVaZHTJrLYqZWBuqVCmzEs2W6YHQyoidACA4zj7GH90t6RmX8iwSU7I4cij9E9l0sZpAuMv1RTyzlYnO0eqInQAlMgOx9p9UilZCl71Ldv394+ZkKRQfownnLwof8cLE4aCdRGaIEpkeBSxrlkJ2UpqiMbNmxoW0jyeLt37+6tBcZF/nbL+JVDaR8FGDWhBQbIjn5m/pikNomyk5KjqYcaXFK1SXtYLqUFDRgf+dtNWMmYtbVr1/bWAtRHaIEpk6CR4JJLjq5meai6A3YzS1luZ5YxoG4Zv5JWsC1btjxrxkGA2ggtMIVydLWc7X6pz8OQ0JIgZJwL1Cl/l+VgRf7+U3kVWIDaCS0wwCTMHjaX7Kj0n+1+qeT/KoElocgJKKEuOaiQKdCdgwUYN0IL0B55XcoAk8e64YYbDlRxMnZGuxisrO45WHIwZilaQwGWi9ACUy47LldffXU7GHcpg0sJLHn8MvDf7ESwctIClr/F/J3nstStoQCjJLTAAJM4e1i/7LhkEG5k2uKlPvqaxy/98tlhciJKWD75e+4eLMg4NjP9AeNIaAHasSdp5+q2dC2lcnS3e64YYLRKlTN/exnLAjDOhBagddJJJx0IFNnZWeqZv3J0t3uENwP2zS4Go7N9+/a2ypIDEVrBgHEntMAAkzp72MHk6Owoz5Cdo76p6uRnTNv/LSyXDRs2tOdgyUyB3XMpAYwjoQX4IQlqkbaSUcz6lR2pMuWqMS6wdPL3Wv6mUl3JAQgtmcAkEFqAH5I2rhIsRnWulYxvSbUlwahY6kkAYJqk3TJ/s7n4WwImjdACA0zD7GHzyRHa7usexU5QxtGUXvscIS6tLMBwUl3JSSPzd6oVDJhEQgtwUBmDkurLKFu5Eg6zw5WT3xnnAsNJC1imLs/fqXOwAJNIaAEOKgPyE1hG2XaSna1Ud7KzNTMz01sLDNKdyjiVy267JcAkEVpggGmdPaxfwkTGtiRQjLJXPu1h2QnLzlfkZ5kWGX5Y/jbyd5mLc7AA00BoAQ4qYaWcfHLUMxF121oSFlPdScsY8IycgyVhJX8v3b8ZgEkltAAL0t05ylHe5ag+rVmzpl1mcL6jyfCMTJKRAfcZx2LgPTANVvWWIzMzM7MvywyynQTl/BWT8npgMUpLynK0zmVWsbvuumsqZ3CDrnLOpFFNQw4snWnaXyyvdXZ2dqS5QqUFGFrOtB3ZGI96zEl20LqBJWHJtMhMmwQW52ABppnQAgwtQSLjW1JxKYPml0N21jK+JReVF6ZJCStr167trQGYLkILDGD2sPklrGS2r2KU53ApMqYmPfzx0EMPOeLM1CjnYElgN/AemEZCC3DI0q6VHarlGCyfsJTzxmQnrjsxAEyabutlOQeLwAJMK6EFWBIJDmkXW47zqmTHrQxGzs/NzpxpkZkk+X1OS5hZ8wD2E1pggIybyGBz4ycGS5UlrWIJEqM+j0u/tKXlPUq1x/vEJCiTTaiqADxDaAGWRKosy3HyyX4JStnBy891vgomQQ4A5Hc5f1PdcWMA00xoAZZMd4xJdrjKeSVGLcElR6dT8Sky7gXGRf5mupNZpD1MCAd4htACA5g9bHHy/5UQcemll67IIPlUXjLOJSFmJX4+DCPhPr+ruSzHLHwA40hoAZZcxpak+lHGmyy3BM20i2Vn0AB9apdwn7+VnIPFOBaAuQktwJLLjlfGt6xUi0sZ55Ij16m4QM2uvPLK9u8kfy9CC8DcVvWWIzMzM7Mvy5U42joKOYIbk/J6YLlkjMlK9ujnSHZ2ClVeqMFK/z0AozVN+4vltc7Ozo40V6i0ACOXqkcG5q/klMT5+dlRTPVluSYIgLmUMVcCNMDCCS3AyOUoTAbEl/OprISEljLOxuB8VkqCc2kDyxgWABZGaIEBzB62NBIWMsYly5U670QG5icwbdmypTnppJPadcILyy0tYfkbcA4WgOEILcCySFBIaFjpgcYlsETCqGlmGbWE4+7vWAKL8SwAwxFagGWXnbj09OdcLislzyGtOuUcGYILo5DfqwsuuMBYKoBDJLQMafXq1e3y0UcfbZdMtgwczziMlRxAPokSFnLJEeevfvWrvbXLKxWfhKbSrpP2MVhqOQdLwkp+v0xnDNOh7COWfUaWhtAypGOPPbZd7tq1q10Cw0tIyJHn7MQ99NBDvbUrI4Oiu6E0YcpYF5ZKzsGScXEZ0yUYw3Qo+4hln5GlIbQM6fTTT2+XmzZtau6+++7msccea28Dw0l7WHbkahiMXI6A54h4GSC9UhUgxl/3dyeTT2TslCoLTL7sE2bf8PLLL29vl31GloaTSy7Cxo0bm507d/ZuAQDAM9avX99s27atd2uyOblkxfJLeNFFFzXHH3+8fkWYUPv2tcdbAGBBsk+YfcPsI05LYFlOKi0wQNo60sKU2X8Mxh+tMrtSBsbXdKbwjG/J78HZZ5/dtvrAIPndzUkjnYMFmBbLVWkRWoAqJBxkhy9jXWrq/y/BNfL8nF+DrvzeZlpjgRaYVtrDgKmSoJJB8CWw1DKDVypsqQKFc7nQld/R/M6mEuscLACjJbQA1Uk4SFCopSUv1Z9UWUp4iVpCFSsnvxeZIjtB2+xgAKMltMAAaQ1K2TNLlk9puUlbaS3jW7ptYb//+7/fjlnIDivTK1UW52ABWB5CC1CdjA/IjmCOXmdQc212797dBqtypJ3p0T0HS4JKDmgILACjJ7QAVTrppJOaW2+9tcpZmMo4hoSrMgCRyZffx0svvdRMggArwOxhwFhIS1YqL7VOJZt2tlRfzCI1mTLQPkE173EZb2UcC4DZwwAOyA5jxrakwlFjO1Z2ZPPcsjObcMXkSRjNuKYEl9qm5QaYBkILUL3sMJaZu2oMBdmBLRWWjHEw/e1kSBjtvpcJplrDAFaG0AIDmD2sHjm6naPctcwm1i/PL5MHZKdWi9j461bPhFCAlSe0AGOjO44gO5W1newxkwd0z+WSgJXB24yfHKgo52B56KGHemsBWClCCzB2cuQ74SCXhJcaZWrctLLlaH2t1SHmt2HDhrbKmvewe44eAFaG0AID5Mh+Zr7Tx16XtF+tWbOmDSxpGatRqi5pGWN8dNvAnIMFoC5CCzCWUr3IkfCaA2UqQTlS332OtbW0sV8qYwnADlAA1EloAcZSxhrkSHjtrTupCpVxOKWtzcQOdcn7kpNGpnKX96vWlkOAaSa0wADZuTR72Hjor2jUaPfu3e0OcWYZy1gX6pCgkpOWJlA6BwtAnYQWYOwlCCRYZvxRzeNIsmOccJVxEmeffXZvLSslLWFFfm+MQQKol9ACjL0cGU/1IhJgam7vyVH9TIOcgfqR51rjWf4nWf7PU+nKGJZucAGgXkILDJB2I7OHjYcSBjJAf5zae1IhcpR/eeX/PL8r+T15/PHHe2sBqJnQAkyMtF2VwJJZusbhxI6nnHJKu0y1xYkol0cOQiTkbtmyxTlYAMbEqt5yZGZmZvZlmaPVAMsh7T8ZVJ3gkspL7Tummb0q28g8Z0Yj/8cJKgAsrUxYFLOzsyPNFSotMIDZw8ZTqi0Z9B4Zu1DzGJfIznQ3sJQ2N5ZGAotzsACMN6EFmEjZQU0QSGgZpzEukcCSWcby/GsPXOMggaX8P/r/BBhPQgswsTK4vdsaNi47rJkJLeNzWBolwI7bJA0APMOYFmAqpMUv1YtynpTaJWDlUp5rrtvhXriMZxL8AEbPmBaAJZTzcWTHv9sqVLMElG5gSdUoFYNxeO4rLRWVjGly/huAySG0AFMhO7IZ8F6OCI2TVA127959YIYxwWV+paKW0Of/CWByCC0wgNnDJkd2YrMzm4rFuLVZlRNnZrlhwwZtYgPk/yd/s5mAocwgB8D4E1qAqVJ2+DMNbnZsx0UJXf1TI/PM+J/I/1MOMjhpJMBkEVqAqXTppZe2O/2pvIyjBJiEroSYBLBpldee/4OMVQJgcgktMEAGPmccgZPSTZ4tW7a0y7y/47jTnxaotIvluW/fvr23dvokrGTMTxjDAjC5THkMTK3MKPb444+PdStRJhhIqJ7WcS6pluXiHCwAK2O5pjwWWgB6UrVI9WJc5fln5z1tY5N8jpL+c7CkwiKwAKyM5Qot2sNgALOHTY8yPmScz+2R39MyLXKqSJMoY3kyK1h3EgKBBWDyCS0AT1u7dm27zMD8cRzjEglekzxrVrcNzPgVgOkitAA8LdWJHMHPclxbq7Izn536TDJw0kkntesmaec+gSyVzwTLvE8ATA9jWgAmWEJMKhQ33HDDWI7X6Z5/BYD6GNMCsILSIpaj+ePaKhbZ4c8BoyzH8bVkwH2mNFZVAUBoAZhDBrVnJz8noRzXFqtUJ8pZ9HMZt0pLAkveg7yOci4WAKaT0AIDmD1semVQe3byE1jGudoSGQPSPUFqZkgbhxBw5ZVXtn9/aW2b5CmcATg4Y1oWadu2bc2OHTuaPXv2NHv37u2tBYDp8ZznPKd57Wtf216OO+64A9eB6bFcY1qElkXYuHFjs3Pnzt4tAKD4pV/6peZXfuVXereASSe0VCoVlq1btzaHH354s3nz5mbdunXNkUce2fsqMKkyC1fGh0xKu2B5LbWMc8kMZ2nJi4xl6bazUa8nnniieeCBB9rLN77xjea2225r1//4j/94c9lll7XVF2CyCS2VOvfcc5v777+/+ehHP9qcfPLJvbXApMu4ljKLVQLMJJ3EMeN2Ehg2bNhw4PwuKyFBJefKyYXxlM/6D33oQ81f//Vft7cFUJh8yxVaDMQfUsawRCoswPRIRSIDwhNcygZ6UqTKkcH52cFMBWa5JCx1JwRIBUtgGW/52/j0pz/dvPWtb21v52/mF37hF9rfL4BDIbQMqQy61xI2HcweRleqEJmJq5zocFynQu6XIJbAspxKdSc/d1L+H3lGWsM+/vGPN+vXr2/+9m//tv27ed/73td8+9vf7t0DYDhCC8AipF0sVYFUKSZBWnjyWkoLXIwyTOTnlKPvQstkesMb3tCOA/31X//15rnPfW5zxx13ND/7sz/b3Hzzzb17ACyc0AKwCOndL9WCr371q7214617LpS0iWXczqjaxXIOltJy5xwsk+0d73hH80d/9EfNWWed1fzLv/xLOyY06/7yL/+ydw+AgxNaYIAcfc7OqYGk9EulIJfSKjZpHn/88XaZSQeWajxC9ySdabVLIBJYpsOaNWuaa665pv19euUrX9ns2rWrec973tP89m//dvPd7363dy+A+QktAIuUPv3seK/kjFujkqCeKlKqIUsx8UBazzJ+ZVLa6VicVO9uueWW5l3veld7+3Of+1zbMvaZz3ymvQ0wH6FlhHbv3t1+2C/3TEN33XVX+zPf9KY39dYsv+uvv759DldccUVvzaEbxWPCoSqVgrSK5Shyt5ow7jJmJ6GsVJPy2hZTdcn35P8m/0fZLsL555/ffPazn21OO+20tqqX855l3de+9rXePQCeTWiBAcwexkJt37693cG/9NJLJ3JgeQllqS5lOYwcXV+7dm1bacn3Q7ziFa9otmzZ0rz//e9vXvrSl+YcD8073/nOdt33v//93r0A9hNaJtApp5zSjsP4whe+0FszGS688ML2daUvGmqTdqq0UuW8I5PYApVqSzmhZl7fwSYfSMjpPweLsWHM5cwzz2wH6p933nnt7RwASMvY5z//+fY2QAgty6TbKpZLkVan3E7rU5G2rqxLm1f0f2+37Svl9O7X8j397WHpH87t3Ldcz6W/zao8l3LptnGU1qxyKc930HPr1/3Z5dKv+7Xu84652sPKay2Xcl9YCZkJK5WE7rTBkySvK9WkvMZB43gSWDIeJvfvBheYz2GHHdYemPrUpz7V/MRP/ETzne98p/mt3/qtdt0DDzzQuxcwzYSWZfLe9763d22/YcabbNiwoXft2bLznnL6QmXn4dprr+3daprbb7/9QDDKY+V2V35uQknCw0033dRb+2zzPbd+CRzdn10kaBTd6zHX/bvyvC6++OLerdEwexjDSDWiG1gmaXxLkWpS96z1aRVLkOlKYCljX7oHP+BgjjvuuOZjH/tY85u/+ZvNi170ouYv/uIvmre97W3tZ8gPfvCD3r2AaSS0LJNNmza1O7/XXXdde/vhhx9e0Id5uc/RRx/dfn+37euRRx5pl3nM8rW0hs0nP7PcL48XeYz8jBJYytczn35kUGT5OSndl6/n6Neg59YvJxWL7mPMzMy06/JhlABSlK+XVoH5lBOUdR/zda97XbsOVlrapzKGY5IDb0JZAkuCS/d15mBGwk2+VlrKYBg/8zM/07aMvfWtb21v58BZ1n3xi19sbwPTR2hZJiVMDAoVc8ng1ezcJ3CUFqhSHXnjG9/YLlNtyPr+dq9+JSRE99wIDz30UO/aM+1ZJcQksJxxxhnt9Xxo5GulSjToufXLfaI8VnQDRglGJSzFwQLIXI+ZMAU1SNUlbVIJ05M6kUM5OWRkIHXhHCwshRe84AXNZZdd1nzyk59sP2u+/e1vN7/xG7/Rrvu7v/u73r2AaSG0LJOyM9/dqc9O/1FHHdVev++++9plqhdlZ7y48cYb2x2fIiEl9zvnnHPa9WVHP0GjjDUZRk76VZSKRbkkBOR55vrll1/e3ifPr4wdme+59SuVne50luU15/+g/D/ce++97TK+9KUv9a7NrTxm98jbYl7/IGYPY7HKDn123M8+++ze2smTgPKBD3yg+ZM/+ZMDs4pNYlscK+eEE05oP2sSVhJk8rv28z//8+06YHoILcukVEPKGIwSNMrOesam5Otpqyg745EAUKoY/cog/P6xKMMqFZMoPyuXUlFJEMjt/jEmg55bv8wOE3mM8j1lPE7C1+tf//r2erdqc7DXVR6zVIByKUEIapAd+ltvvXWiKw4Zu/I7v/M7B86gn8CStrhhp0WGg0mrWFrG0iYWn/jEJ9rPj/kq/MBkEVqWSRnLEgkIZdrebHC7bVvd+80nFY8EjX55nMW2R+WIVfd5xKAdrfmOcM333PK8SqWmKGNhIt/Tfe35Wv/9+831mMa0UKsyo1ZCzCQp52DJBASZVSyvM5e0h+X1wlLK4PwM0s9g/XXr1jV/8zd/0x4MzLpuqzMweVb1liPz9I7wviy7LUTjLEfzY1JeT83K/3UG2hurwrhLRaKcWDFtY4OmDB4HmY1wvgMbqbZcffXV7c7kuL9O6pYJWT7+8Y83Tz31VPO85z2vefe739284x3v6H0VWA5lf212dnakuUKlhWqkHa20eZU/gBBYmASpSJTpkMe5naV7Dpb5xq6UmcNKYMn3TFqFiTqce+65zec+97l2QpYnn3yy+d3f/d1m48aNzVe+8pXePYBJIbRQrW77GEyCVFoy1qNUXMZRnn8JIAttx8lEFiXoJMDAUkrFL5NBbNmypfmxH/uxZufOnW3F5f3vf3/z6KOP9u4FjDuhhWrkHC8JKeUy3zlflpPZw1hq3fOW5Fwu4zbTViYLyXTOCSELPQdLZk/L9+S1qrgwKqeddlrzB3/wBwfOGfSHf/iHzVve8pZ2HTD+hBaAFZDAcumll7YzbdVefegGq7R+ZXzOMCeNzPckrJRqC4xS/qZywuKcFy1/Wx/84AfbINOdch8YPwbiD6k71gIAAGL16tXNscce25x++unt2KppUfaNDcQHAIDK7d27t7n//vubrVu3TlVoWS4qLUMqaXJSXg9Qj7SyZOxHTdLSleeU9pqlfG6ZMjntcZEpoGt73QDDysQPu3btajZt2tQ88cQTzUUXXTQV4WW5Ki1Cy5CEFmAUElgSELJc6YkfljM8dc/3MujcLwDj4u67725+7dd+rTn++OPbcwlNOu1hUAGzh7FcEhQywD0HRBJeVkqmNH7zm9+8bLOalZBSQlsG6ie8AIyrdevWtcs9e/a0S5aG0AJQgey854SM5fpKSGApz2H37t3tcrkktOS8LwlL4zCjGsB8jjzyyHaZMS4sHaEFoBJlauBynonlVs6nkopHqi3LKUEtrz1TKZdzwQBAYUzLkIxpAZZLzuWS6sPBAkQGf/7Ij/xI8/znP7+9fe+997YBKOsOpn/8Sv/tlZbKT16/EAOMk2naXzSmBWCKpU0qs2ul6pGxLoPkrN//4T/8h96tpvnUpz7V/Pt//++bxx9/vLdmbvkZGUPSrezUFliWe4wNAHUSWgAqlEpJOXv8QiaCyE79P/3TP7XXMx4lFZPvf//77e255OsZO5JB7wk3NY4hSVjJEbw8t9tuu623FoBpJLTAAGYPYyWlApJgsWXLlt6auZWB+//wD//QhpAydfBRRx3Vrp9LKioZP5Lf71rPk5LnlL+9/B+s1DgfAOogtABULDvrJZSk4jBoOuDu19esWdMu+3UrKmk9S/tV7eNF8n9QnmMqSrmtXQxguggtAGMgYWO+85i88IUv7F17ZqritJf1yxiRVFe6O/y1B5Z+qbxkYGv+Hw421geAySG0wAA5opsdJK0prLSEiwSXXPrPY1IqMZlprISWtWvXtsuiDGrP44zzbDZ5DQkseR3dsAbAZBNaAMZEdthTQek/j0m5XkJNdL8eqbAk3FxyySUHBviPq7yGjPM56aST2tt5zYPa5gAYf0ILwJhIEEnFpD90lICSWcC6lZb+akw558kkKIEl0jKmXQxgsgktMIDZw6hZziCfqkNpk0p7WJk5LPK1bmtjf/VlEpQqS5Z5vQboA0wmoQWgQk8++WTzx3/8x+1Z8edqfcpOesJ0qgtf/OIX23X/43/8j3b5kpe8pB33krErqb5McutUglja5vJ6U22ZawICAMaf0AJQoV/5lV9p/tN/+k/tzng5yWKWqSaUsPIf/+N/bO/76KOPtstyMsl169a19y/nYOmfMjnViFz+/M//vHniiSfar427VJTyf1OkCqXqAjA5VvWWIzMzM7Mvy3GeraYrOwExKa8HqFPGn6TdKzvepe3rYFJ1SDBJSMl5Wvbu3dsGmazLZS6pTORnTZL8n5UZ1hJkxn3iAWD8TNP+Ynmts7OzI80VQsuQhBYYL9u2bWt27NjR7Nmzp92JH2f79u1rVq0a+Wb7WV7+8pc3r33ta5vjjjuuXXYHwNcsLWMJYwlltZ7xH5hcQsvSE1qGJLTA+Ni4cWOzc+fO3q3pkXATowg4mTr5sssua44++ujemnplPFDCinEuwHITWpae0DIkoWW6ZOxAjtKm1cQJJsdLKixbt25tDj/88Gbz5s3N+vXrmyOOOKL3VRbqW9/6VvPAAw803/jGN5ovf/nLzXe+8512trJLL710rKZPLq1iec6TMu0zUC+hZekZiA9MpLSERQLLySefLLAs0qte9arm7LPPbqsrn/nMZ5ozzjijnZHsqquuaq699treveqXHYdc8rxNYQ4wfoQWYCJlDEukwsLSSPD7wAc+0Jx77rnt7a9//evtchykra3MLlbOawPA+BBaYIC0hOXorNaw8VMG3auwLL20S0Zm6Xrqqafa6+Mgs4hlKuTubGKTfA4bgEkitAAwlOc///nNK1/5yvZ6xruMk3LOmsjsYhnfol0MoH5CCwBDy/THsXv37nY5zjLZxqSdqwZg0ggtMECOwGZWDEdi4dnWrl3bLset0tKVNrGElfyNm1EMoG5CCwBDK+c+GfdKS15HDkqUk09mnI6qC0B9hBYAhlZCyzhXWuZy9dVXt2fTz9TIANRDaIEBzB4Gc1u9enXzspe9rHnyySfbE1BOivK3fuedd7Zn1AegDkILAItSqi1pqZoUOZ9L2sNSaTnppJPadTmbPgArS2gBYFEmMbREXlfCS5ExL2kZA2DlCC0wgNnDYH5lBrFJCy1dOflkKi+5ZLYxVReAlSG0ALAo5VwtkxxacjLKBJYscwCjzDIGwPISWgBYlBe/+MXNS17ykrb6sGfPnt7ayZN2sQSX7oQcBukDLC+hBQYwexgMNklnxh8kFZbuuVwuvfRS2wWAZSS0ALBok3Bm/GGVcS0OaAAsH6EFgEWblkpLV6ZCvvXWW9sxLpdccklvLQCjJLTAAGYPg8GmsdISaRXLdqFM+5zqi+0EwOgILQAs2ktf+tLmiCOOaL773e82jzzySG/t9ElgueGGG9ppkTNNMgBLS2gB4JCUasO0VVu6zj777Pb/IYP077zzzt5aAJaK0AIDmD0MDq6Elmka19KvTIt81VVXtdUWAJaW0ALAISmhZZJPMrlQb37zm3vXmgNn0dcuBnDoVvWWIzMzM7MvyxytngQZlB2T8npgUpW/VSbL6tWrm2OPPbY5/fTTm40bN/bW1imBJUEug/Yz3qWEO2DyTdP+Ynmts7OzI80VKi0wgNnDoC579+5t7r///mbr1q3Vh5YElWw/jjnmmPYCwOKptAxpmpIzz8wIdMEFFxjXMmb8rU6mxx57rNm5c2ezadOm5oknnmguuuii6sNL2sNKaEnlRcUFJt80fQaV16rSAgA9mV755JNPbjZv3tze3rFjR7usWQksOZfL1Vdf3Y57Mf4HYDhCCwxg9jCo0/r169vlnj172uU4SeUl1VsD9AEWTmgBYOyk4hIZ4zIuMiC/zCiWAyHGuQAsnNACAMvokksueda5XBJkVF0ABhNaYACzhwGjdOuttzYf/vCH23EuzqQPMD+hBQBWSMLKqaee2l430x3A/IQWAFhBqbSkZcyEHwDzE1pgALOHAcshY1wyUD8yHXIqMF/96lfb2wAILQBQle3btx+YFtk4F4D9hBYAqMhVV13VBpZUXtasWdNbCzDdhBYYwOxhwEpIS2pmFnvNa17T3s7Z9E2LDEwzoQUAKlTGuEQOnGScS87pAjCNhBYAGBOZaSwD9QGmjdACA5g9DKhBpkTOWJfMMlZaxgCmidACAGMg7WEJL0XGvJhdDJgWQgsAjJkMyi8npTRRCDANhBYYwOxhQI2OOeaYA22rqbZkdjGASSa0AMAYyviWzCZ25ZVXPmumMYBJJLQAwJjKoPzuuVxKkAGYNEILDGD2MGBcZFuV6ZDLWBeASSK0AMAEOPXUU5sbbrihvZ6xeACTRGgBgAlx0kkntQPz0yZWfPWrX+1dAxhfQgsMYPYwYNx0B+VnfMsFF1zQtowBjDOhBQAmVAkwCS8G6APjTGgBqMxdd93VVvhuueWW3hpYnJxFP2El411yHWBcCS0wgNnDqFkJN/2X66+/vneP/YSg6ZYpkdMeVqoumWFMyyswboQWgDF3+eWXt+E6l+uuu6656aabfii4QHH11Ve3s4xlsL4z6QPjQmgBmCCnnHJKMzMz09x33329NfBs5Qz6Dz74YFt1ARgHQgsMYPaw6dLfbnX++ec3V1xxRXu9SItVbpdlLvm+mKtdqyvVj6zbvXt386Y3venAfXJ9PnkO5X65LER2RmE+aRe79dZbm6uuuqqdIjlUXIDaCS0AT0vguPjii5vzzjvvQKvVUUcd1dx+++29ezzbtdde22zfvr29X6ob8alPferA9+Zy9NFHt6Gj34YNG5qPfOQjB+738MMPzxlc8jPe/va3t/fJz4q5Hq8rwSiPd9lll/XWwA9LpSWD84scmDF2D6iZ0ALwtM2bN7dtVRdeeGFvTdNcc801bfCYS8LN2rVre7f2u/HGG3vX9jvzzDOb2dnZtrLSlTEo3e/NOJQEjf6B8vkZJRDl/meddVb7eP0SbkolJuNZ+h8fBkllLjOMJRxnnItKHVAjoQUGMHvYdEioSGh43ete11vzjBNOOKF37dnmum9X2soSIOby+te/vndtvxJMHnnkkXZZpNLTVW7PFYJK1SaXhJiDVWSgOOaYY9rQkraxBN/cBqiN0ALQ0x8ShpEgUaoduSTUpFIyl1FXQRJiUpEpY23gYBJYEly6B2juvPPO3jWAlSe0ACyBD33oQ20rWal2nHPOOb2vHFx/5eRQlfDVX7mBg+meyyUD9bWLAbUQWmAAs4dNh1L5+NKXvtQuu+YbiN8vO3b9bTXzhYb+CsjXvva1dnnGGWe0y0NVfu6hVI4gAaaEF4CVJrQAPC2tXGmp6g6GH2ZcSAJLd9B9Hme+wJNZyorcP2NQMsh+qdrG8niZVKCMlYFhlXaxN7/5zc0ll1zSWwuwcoQWgKdl1rAEl+5MXG984xvbMDHfDGJdmTks98t0xvneVG3mG9OSMSflZ+T++RmZqWyxus85l/zc/pnMYFiptKTKkgATOZdLqs7O6QKshFW95cjMzMzsyzI93pMgOwQxKa8HJtVS/a2m2pLWry984Qu9NYuXc6hkRrGcc8WUxIfO9nh5ffjDH26rLwkzN9xww4EwA/ywado+ldc6Ozs70lyh0gIwQFq+cr4VmHaZWSw7J6m0CIrAchNaAJ6W86qkEtJVzlLfPeEkTKtUWNIelopLZhUDWE5CCwxg9rDpkTElmXUr73e5ZHC9I8rwbKeeemrvWtO2iyXAZJYxgFESWgB6ElwSUsplqQezp2KTxzWehUmRE1AmsAguwKgJLQDAoqQKnWmRMyi//zxFAEtJaIEBMvA0R8azBOCHZVrkLVu2POts+s6iDyw1oQUAOCSlypKZxa6++uq2XSytYwBLRWgBAJbMmjVr2vCSCoyKC7BUhBYYwOxhAAuXFrFMiXzBBRe0bbXGuQBLRWgBAJZUAkv3XC458GN2MeBQCC0AwMjceuutzQ033NCGmJzXBWAxhBYYwOxhAIcmUyKXqstDDz3ULgGGJbQAACN1ySWXtGNdugeAMlgfYKGEFgBg5E499dRnncslFZi0jgEshNACA5g9DGDp3XXXXQemRRZcgIUQWgCAZZU2sbSMpfKydu3a3tqFueKKK5rPfvazvVvAtBBaAIBll8H5qbK85jWvaW+n8rKQaZH//M//vPmd3/md5rHHHuutAaaB0AIDmD0MYHTKGJdIG26CzMHacUtl5r//9//eLoHpILQAACuuBJic02XQOJeTTjqpXeaAEjA9hBZgIq1evbpdaiGZTOV9Le8z4y8V7QSWCy64oJ1ZbD6l0nLnnXe2S2A6CC1MtfRQ58MxM4TN1Us9aPaw3D9TeN500029NdTk2GOPbZc7d+5sl0yW8r6W95nJkCpKtx03Z9DvP4t+tsmR7bdzvcD0EFqYamlHKB+AObq30A/A3O/qq69ul8POfMPyOP3009vlpk2bmrvvvrt59NFH29uMt7yPeT/zvkZ5n5k82b7mgFFOSpmpkYvudlu1BabHqt5yZGZmZvZlOSm9p2VDqZd2spQB9/1VlVwv7Qrl6F8+SPMBmg/LzHqTSsvznve89mvUZePGjSotE2z9+vXNtm3bereYRNnOZmrkbGuzLS7jXhJkUoHpbpuhJtO0v1he6+zs7EhzhdAyJKFlMiWIZNaaBx98sG0X6x7V61eCTD4886F5zDHH9L5CjbJTu2PHjmbPnj3N3r17e2sZVxnDkpawVFgSSpl8acXN9rZsa7O9zmdwOc+Lags1ElqWntAyJKFlcuWDMcElElrmGgiaGW3ytXxQZpkxLbDcEq67O3BlXNbb3va25oEHHmi2b9/eXHnllQdmWUrQXrNmzcDBzTAO8vue6sq/+Tf/5sAJJhNaSgUGaiG0LD1jWqAn7QdpOYgEkv6B+bldvp52BIGF5fbVr361DdalKhjZWUuYzu/mzMxM+7XcLoElO3mpCOZ3Oh8s5ftgHOX3N9viBJYf+ZEfadf1b6uBySS0QEeCSDkanaN5119/fbujl2UZeF92GmG5XXfddQd20LrhY9BR5nwtbTT5PU4w71ZoUoERYqhJWjjvuOOONniXmcPKJb+vd911V/NzP/dzzQte8ILmhS98Yfs9s7Oz7RKYbNrDhjRN5b5pVgbmp6XmoYceal7+8pc3f//3f/9Dg0FhVBIqsuOWkFGqemmDSchIsF7M72Aes3xfGeAcCeHlOpPBWK5Dk23+a1/72ua4445rl6VyCQs1TfuL5bVqD4MVkFab7CwmsEQCS3b2tmzZIrAwcqUNLL+HpSUxEl6yfrG/g93v645x6a5PJSc/n/F17rnnNlu3bm3uv/9+gWWRss1PxecjH/lIW3VPqH/44Yd7XwVWgkrLkFRapkd23kobWHbqDLxnuaQikt+1bG8SLEY9gL5bgcnOWaowqSpmMH+WjI9UWBJYDj/88Gbz5s3NunXrmiOPPLL3VRbqW9/6VjupxTe+8Y3my1/+cvOd73ynbUe77LLLmrPPPrt3L5ifSsvSE1qGJLTsp/Xg0Gg9oEi7V2b7Kj383TEni62oHIo8hzyfPK9cL6El1Re/p/VLlSUVlo9+9KPNySef3FvLoXjsscfaAPjFL36xvX3OOec0l19+eXsd5iO0LD3tYQwt50bQenBotB5QZHBxwkHcdttt7TJWIrBEqosJUBm7VQJLAtSll17afjB129WoTw4kRU68ydI44ogjmg984ANtIIyvf/3r7RJYXiotQ5r2SovWg6Wh9WB6lfEipWqRNsQEl0z+UGsrVp5jZs/LMs+xhKyEmVipgMUP0w0wOv/8z//c/ORP/mR7/a/+6q+aww47rL0Oc1FpWXoqLQwlLWGRwJLWA4FlcV71qle14SQh5TOf+UxzxhlnNI8//ng7huDaa6/t3YtJknarVDFSWUvVokgISPWi1sASJajkknBV5MM4Y2/KOBiYZM9//vObV77yle31HHQClpfQwlC0Hiw9rQeTq1QiImNVyjiVhJfu18ZFwkt3MopyjpcElt27d7fXYZJlDGL4fYflJ7QwlDKGJTvaLK0cgY+04Dz11FPtdcZTAkmqEnlP834WGSeS8SKpVkxCS1XCV6otqbR02xpzO6+xtJHBpFi7dm27VGmB5Se0QCW0HkyOjFFJy1cCS87gXaTaMonjPxJeyqxnkSCTS/4PSjUGJkFp41RpgeUntEBFtB6Mp1RWumM6UmXIwMSc22fDhg29tdMj/xcJLKk0dadwzvlmBBnGWQktDizB8hNaoCJaD8ZPdsKzM56AUsappJqSakvWT+vMWhn70h20n7a4cu6X7kQEME5Wr17dvOxlL2uefPLJdhZIYPkILVARrQfjp1RYEjjHcXD9ckkLWcb0JMh1B/MnzGQMTJkKGmpXttPd8WrA6AktUBGtB3XLjnWqB9nRLjJNdXbGU1npjuvgh+XcNKlI9VdgEvzSSmbgPuNAaIGVIbRARbQe1CuhJDvWGWC+ffv23tr9O+JlJ4bhJcSk0pL/w24FJv/f3XAItShtvEILLC+hBSrjKF4d0urVHTCeAfUZn5LgksoKSyPVqbSOpcpSKlX5f8//cQJNJjTQdkdNyoQpttGwvIQWqIzQsvLKOVYy/qIElwSWtDGltWlaB9cvl4SXVF8SWFJ9Kf/fCS+pwJh9jJX04he/uHnJS17S/j6WEy4Doye0QGW0Hqy8hJP8/2en2aQIKyPVlwSUzM5WpC2vDOY3/oWVZHp6WH5CC1RG68HyytHS7BiXWcAiR/nTmpT13XEWrKxTTjmlDSzRrXZlggR/Lywn09PD8hNaoDJaD5ZPdnbLUfuElCItelmvDawueV/yPmUyhP5B+6nM5CK8sBxUWmD5CS1QIR+Io9Pdqc1OcMZPpA3M4Prx0h3nkhnccjtjXbpBs1s9g6Wk0gLLT2iBCvlAXHrlHCs5Gt8dXF/OsVImQGC85D3M+5qAsmXLlgMzkCWclsH8eX9hKb30pS9tjjjiiOa73/1u88gjj/TWAqMktECFVFqW3m233da2FWUnt/v/2j0yz3hLxaWrG2AKM4+xVMqBDgeXYHkILVAhlZZDk5ahVFa6JyfM0fhMY5x1BtdPvuxQ5r1OJa17Bv6E11RfUoXJ7wgsVgktDi7B8hBaoEJaDxYvR9UTTnLpTpebo+7OsTJ9Un2Zq/Uv7WSPP/547xYMr/xemfwBlseq3nJkZmZm9mWZtoxJkCN0MSmvZ1jT/vqX07vf/e7mK1/5SnPddde1U70yv1RWumEkM3+tWbOmraiYBYx++X1JFab7u1GqMVmXy7gq22gmy+rVq5tjjz22Of3005uNGzf21lKzadpfKq91dnZ2pLlCpQUqpfXg4LLzmWpKdjK7M0WlJSjrM+heYKFffie6vxsZ55Idi1zye5PfK6jJ3r17m/vvv7/ZunWr0MLUUmkZkkqLSstyueOOO5r3ve99zWmnndbOisQPyw5mOTN6dkIzTgEWK9WXHCQov0dp+7n00kvbit2GDRsODOyvmW30ZHr00UebXbt2NZs2bWqeeOKJ5qKLLhJeKqfSsvSEliEJLftfP5NlXFoPMnA64xDKQPocEc8OZi5zjVuAQ5FAXMZF5XeuXK+Z0DLZ7r777ubXfu3XmuOPP765+eabe2upkdCy9LSHAWPRelBm/0pA6Z5nxTlWGJVU7xJU+se55Hcu680+xnJbt25du9yzZ0+7hGmi0jIklRZH8SbROLQelJNCZnn22WePRasOkykBpgTnhJeaptC2jZ583uPxME3vU3mtKi3AyB155JHNySef3GzevLm9vWPHjna5EtLylSPYCSfd86xceeWV7e1UXAQWVlLGmKXqlwpf+bCOq6666lm/swAsHaEFOGD9+vXtciVbD7LTlx3CDILevn17b+3+2dTMBEYN8ruY8JwxL+V3Mr+v+d1NcKmp8gIwKYQW4ICc0DIyxmW5lHNmFGm9ydHrjF3J1MUwDhJkyoQQ3dCSNrKMgVnKaZSffPLJ3jWA6SG0ACumDHLO0en+wfVpD1NZYZzkdzbVl/w+F7fddlsbvhNkyvTch+pXf/VX22D/P//n/+ytAZh8QguwICVULKUcfc6lOy4AJsnMzMyBmce6Y7FyMtTF/k2ddNJJ7fKd73xnuwSYBkILsCA5evxLv/RLvVvDy+D6VFa6rWA5YV+OPqeyYnA9kygBI387mUGo2zZWqowZGzNseCknusz3GfgPTAuhBTioBI7sdH3rW99qfvCDH/TWLlyOKmdwfQkoRfr/c4FpkupiCTA5A3+3DTJ/KweT+2f8TCT8LOV4GYBaCS3AQZWgkZ79f/WvFrbZ6J54LztoCScJLgbXM+1K6MiBgPw9lNCSwJL1+Xvphvu55D65JLAkuABMOqEFGKhUWbJjlbaUIus/+MEP9m49I+sTbsq0xUWqLM6xAs/WrTS+8IUvbP8+ylivYr5KSqm2pEWs+7cGMImEFmCgcq6U7mxeCSCXXnppc8cdd7S3uzJbUnagsvOV1hdgYTL+JQEk1Zezzz67t3b/32Amq+jOshf5G8vfZVx99dXtEmBSCS3AvFI1SctKqbKUVpTSR//TP/3TbRtLt5UlR39zSbApsyYBC5fw0q3AlKCSQNMNLfkbLNXLcnJLgEkltADz6lZZIkd6E0YSYt71rnc1/+2//bf2qHDWlZ2pfK1blQEOTf7uEkiyLNMdJ7Dk7yzrfuqnfqpdZ2wLMMmEFmBOOXJbqizr1q1rd5DK7ewonX/++e31tK0kuBirAqOTv69u5TIHCXLJ3+Sf/dmftZWZ+ca+AEyCVb3lyMzMzOzLMgN5J0E5Cd6kvJ5hTfvrnwblPc4OUo7uZrljx47mn/7pn5rDDjusufDCC5t3vOMd7X2yk6SiwnLo7pB3f+e67VLd4NwdmN5ttSqz2j3++OMHph2O7PyXn9ENB6kiFqXiGN2WyLRoFd1qRxkoHwn6kZ/Rf5/yc7uP2f1Z3efQfW75+7z22mubf/zHf2y+8pWvNE899VS7ft++fc3s7Gx7ncnjc3g8TNP7VF7r09udkeYKoWVI076xsLGcfOU9juc///nNc57znOb73/9+ezuzG2UcS3dnjOEcbOc7X+/uZGfnu3xPaQ2K7GQX3Z3v7riGYXa+8zO672sZtxRlhzv671N0d9z7d+gTEKI7vW+eQx4/l/7XUn5udzvT/b0sFb/o3n8a1p9yyint+lWrVjWvfvWrm7/+679u1/ezjZ5cPofHwzS9T+W1Ci2VmfaNhY3l5Mt7nCO12SmK7Cyde+657Y7nz/3czx04mp0dp7JTNcwR7hhm5zs/Y66jznk+mRyg7MxlR7k8n+wol/Xdne/scJf12REv63O9rC9HvvP43Z3sPOZDDz3UXs9zKOsTDMrj5DmX9aPeeZ229fP9P5fwE933Zb6wVN7f3O6+7/3BrKyf7/eqP5gV84XD8vuc789rLPIaczAgun8X3b+j/H3l9l133dV8/vOfP3AQIfK1PN5pp53WrFmz5sCsY7bRk8vn8HiYpvepvFahpTLTvrGwsZx85T0ucjLJchb8TGecHaNYqp3RaVt/sJ3v3O4PS0UCWFk/X+iaL6QdbOc7O8794bDcp1uxyWsp8hqL+ULpfCG2O3FD+TlR/g/Y79Of/nTziU984sB7F/l/zP99qi7d/9OwjZ583uPxME3vU3mtQktlpn1jYWM5+cp7PJ8c2c19Mvj38MMPb8e5DHOEO4bZ+c7t/p3s7vriYEe4Y5id7zx+f5tWeQ7dylJ3Z7J8HZZCKp6poOR3bFBQ6bKNnnze4/EwTe9Tea1CS2WmfWNhYzn5ynucHaSyY58j59mBmut9z476v/23/7a55ppremuApZIwnr/JQUGlyzZ68nmPx8M0vU/ltY46tJjyGJhTKh2pjkSqD6meJMSkepL1CTUJLDkK/Od//ufN3r172/sCSydVw4UGFoBJJrQA88oOU2n9SntU2qtyPesTahJi0ib2x3/8x83q1at73wUAsLSEFmCgHOXNuJCUf1NVKUGmeMELXtA873nP690CpsUtt9zSbhcyq9mhuv7665fssYDJJLQAB5XqSgbAlwHuqbJ0p4gFWKjzzz+/vSy3hKL+y1zP401vetOKPD9gMKEFWLCMZUlgiVRfEmLKWbgBFqJMd9114YUXtgOWMzvaKJ111lntzymX2dlZAQXGhNDCRLjiiivao2aMXgbg59wRJ5xwQtsu9sQTT/S+AjBezjvvvDa4APUTWphau3fv/qFWgVwSgLrK/dJzzX6vfvWrm09+8pNttSVjWoDxVA74lPEpuXSVdbmkbepg5tquZl2Un/Hwww+3QSHXy2PONz6mjHXpXvplXV5H/33Lzx3kkUce6V0Daie0MPVypK20Cmzfvr25/fbbfyi4AEyym2+++cB2MEr46LZT5aSqBwsuH/rQhw7cP5eZmZnmve99b/u1c845p1139NFHt+tz/Qtf+EL7tbmkbeumm25qt8vdx5srkGS7HeV++RkbNmxo180nASnfd/nll/fWADUTWqBj7dq17Yf0vffe21sDMPk2bdrUu7bftm3b2h3/7klj3/72t7dVklRF5nPjjTf2ru33xje+sf2eYWcFy89INea6665rt8tFefw8v66EmYyLKc4999x22f9zE1JKJebiiy9ut/cJU0D9hBZGqrQe9LcMzNVq1X+fXOb6cFzIYxU5Kti970JoFwCmTf8A+OzcZ9xaV7nPQreR2TZfe+21vVvDue+++9rlXAPzE1D6DywdddRRvWv7ldv9z7V/IH6+vtDPBmBlCS0si7QHlA+JtGOl5N8NJLmeUn63VSsl+3zgdUNJjpr13y8fOqU1oCsfRGlnKPfLh9XBPpzK0b3+o44A06ZblSiXGBRa+u97KK1XqfTMpT+gHIrLLrusXQ46+AXUQWhhWXzkIx/pXds/tWWUI2mRcJJQ0S3vp2SfdQk4xebNm3+oDSDtC/0fbuUDqNuqsHHjxnbZ/+GUxy8fsnkeCUSjnnYToHbdg0PdS7dlrKuMBSz3626nFyNtZXNZaKVnIUrr2VI+JjAaQgvLotuTHAkZ5UOi9By/7nWva5ddZV3uk7awfIjNdb/+NoY77rijDTddeQ7dn1v0fzDnexcySw7ApMr2s3tgaSGybe0/gLTYMNDd9vdLNbx/m79YZUD/UlZvgNEQWqjGXB8aC103lzKlZveS0HOwD9G0hh1ssCnAJMug+2xD+2dSzHZ0Ptk2dwfdZ9mtlBdp253rBJNdqbQnOGWwfAkWUU4EOV+1Z1iZ7SwOtSoEjJ7QQjXmChOLPUoX/QMuy6V/dpt+a9asaZeH8rMBxllaZMsU8N0DP9mGzidBogSN3DftvHONack4koSb3GdQVTvb6mzHM46x/PwY9BwOpv/1xKE8HrB8VvWWI/P0BmxflpOyUZj2jdywrz9H6fIh0X//fFDlaFsJEHncfDj1Hz3r//7+7yv6n1e+L7PLDDoHQI7elUH93aNsOTqYD9182OZo33z3m1Q+yGF8+fudfN7j8TBN71N5rbOzsyPNFSotVCEBIeGkO0g+7VlZ1z1Sd+aZZ7YtC93WrdIu0JVB9zmS1/+1hJ5uq8FccnQwfdnm7gcAqIPQQhUSEHISsf6ZvNKe0A0PqXSk4pGvlfvl5GWp0nRl0H2ObvSPa8ksZv2TAnR/Zi4Z4DmoQgMAwPLSHjak7NTGtJZlp/31TwPvMYwvf7+Tz3s8HqbpfSqvVXsYAAAw1YQWAACgakILAABQNaEFAAComtACAABUTWgBAACqJrQAAABVE1oAAICqCS0AAEDVhBYAAKBqQgsAAFA1oQUAAKia0AIAAFRNaAEAAKomtAAAAFUTWgAAgKoJLQAwIVavXt0uH3vssXbJZHn00UfbZXmfYZoILQAwIY499th2uXPnznbJZNm1a1e7LO8zTBOhBQAmxOmnn94uN23a1Nx9990Hjswz3vI+5v28/PLL29vlfYZpsqq3HJmZmZl9Wd5zzz3t7XF34okntstJeT3DOu2005q9e/c2O3bsaI444ojeWiZFWkryYZjWgz/90z/trQXGycaNG1VaJtj69eubbdu29W5Rq2naXyyvdXZ2dqS5QqWFoWg9mGzlfdV6AOMrO7QXXXRRc/zxxxv7MCHyPub9zPsqsDCtVFqGNO2Vlmwst27d2hx++OHN5s2bm3Xr1jVHHnlk76uMq7QepFc6LSVPPPFE+8GYo7UANfu93/u95oYbbmguuOCC5pd/+Zd7a2HlqbQsPaFlSNMeWkLrwWTTegCMC6GFWgktS097GEPTejB5tB4A4yhBJTuFAgtMPpWWIam0TBdH8QCAYam0LD2VFgAAoGpCCwyg9QCgXqmG5yhvlsBkE1oAAICqCS0AAEDVhBYYQOsBQL208ML0EFoAAICqCS0AAEDVhBYYQOsBQL208ML0EFoAAICqCS0AAEDVhBYYQOsBQL208ML0EFoAAICqCS0AAEDVhBYYQOsBQL208ML0EFoAAICqCS0AAEDVhBYYQOsBQL208ML0EFoAAICqCS0AAEDVhBYYQOsBQL208ML0EFoAAICqCS0AAEDVhBYYQOsBQL208ML0EFoAAICqCS0AAEDVhBYYQOsBQL208ML0EFoAAICqCS0AAEDVhBYYQOsBQL208ML0EFoAAICqCS0AAEDVhBYYQOsBQL208ML0EFoAAICqCS0AAEDVhBYYQOsBQL208ML0EFoAAICqCS0AAEDVhBYYQOsBQL208ML0EFoAAICqCS1DWr16dbt89NFH2yUAABRlH7HsM7I0hJYhHXvsse1y165d7ZLJpvUAoF5aeKlR2Ucs+4wsDaFlSKeffnq73LRpU3P33XeruAAA0O4TZt/w8ssvb2+XfUaWxqrecmRmZmb2ZZkjIZNi48aNzc6dO3u3AADgGevXr2+2bdvWuzXZ0pESs7OzI80VKi2LkF/Ciy66qDn++OP1KwIA0O4TZt8w+4jTEliWk0oLADCWMt7whhtuaC644ALjWmCFqLQAAAA8TWiBAcweBlAvs4fB9BBaAACAqgktAABA1YQWGEDrAUC9tPDC9BBaAACAqgktAABA1YQWGEDrAUC9tPDC9BBaAACAqgktAABA1YQWGEDrAUC9tPDC9BBaAACAqgktAABA1YQWGEDrAUC9tPDC9BBaAACAqgktAABA1YQWGEDrAUC9tPDC9BBaAACAqgktAABA1YQWGEDrAUC9tPDC9BBaAACAqgktAABA1YQWGEDrAUC9tPDC9BBaAACAqgktAABA1YQWGEDrAUC9tPDC9BBaAACAqgktAABA1YQWGEDrAUC9tPDC9BBaAACAqgktAABA1YQWGEDrAUC9tPDC9BBaAACAqgktAABA1YQWGEDrAUC9tPDC9BBaAACAqgktAABA1YQWGEDrAUC9tPDC9BBaAACAqgktAABA1YQWGEDrAUC9tPDC9BBaAACAqgktAABA1YQWGEDrAUC9tPDC9BBaAACAqgktAABA1YQWGEDrAUC9tPDC9BBaAACAqgktAABA1YQWGEDrAUC9tPDC9BBaAACAqgktAABA1YQWGEDrAUC9tPDC9BBaAACAqq3qLUdmZmZmX5Y5Wj1Jtm3b1uzYsaPZs2dPs3fv3t5aAJgez3nOc5rXvva17eW44447cH25pMJyww03NBdccIGKOKyQVDtjdnZ2pLlCaFmEjRs3Njt37uzdAgCKd77znc273/3u3i1g0gktlUqFZevWrc3hhx/ebN68uVm3bl1z5JFH9r7KpHEUD2B+TzzxRPPAAw+0l2984xvNbbfd1q7/8R//8eayyy5rqy/AZFuu0GJMy5DSEhYJLCeffLLAAsDUygG817/+9c1b3/rW5uqrr24P9Lz61a9uvv71rzdvf/vbDZAHlozQMqSMYYlUWJh8Zg8DWLgccf30pz/dhphIpfoXfuEXmjvvvLO9vdQSisweBtNBaBlSGXSvwgIAc0tr2Mc//vFm/fr1zd/+7d82l1xySfO+972v+fa3v927B8BwhBYAYMm94Q1vaMeB/vqv/3rz3Oc+t7njjjuan/3Zn21uvvnm3j0AFk5ogQG0HgAcmne84x3NH/3RHzVnnXVW8y//8i/NRz/60XbdX/7lX/busXhaeGF6CC0AwEitWbOmueaaa5oPf/jDzStf+cpm165dzXve857mt3/7t5vvfve7vXsBzE9oAQCWxamnntrccsstzbve9a729uc+97m2Zewzn/lMextgPkLLMsvGOu1G559/fm8NNdN6ALD08hn42c9+tjnttNOaxx9/vD2NQNZ97Wtf691jYbTwwvQQWip31113tRvkK664orcGAMbfK17ximbLli3N+9///ualL31pTkzXnk0/677//e/37gWwn9BSufvuu693DQAmz5lnntkO1D/vvPPa29u3b29bxj7/+c+3twFCaFkGqZSUS7/du3c/6+u5pIUsUl256aab2uu33357+7VUXkr1pXvJOpae1gOA0TvssMOaCy+8sPnUpz7V/MRP/ETzne98p/mt3/qtdt0DDzzQu9cP08IL00NoGbHs8HZde+21vWv7PfTQQ71rz8h9Embm88gjj/SuPePiiy/uXQOA8XTcccc1H/vYx5rf/M3fbF70ohc1f/EXf9G87W1va66//vrmBz/4Qe9ewDQSWkaoVEyOPvro9khQLpmnvuuUU0458LXu1xNmMj1kKZdnfb6e+59zzjnP+p6ZmZn2PoOCDgCMi5/5mZ9pW8be+ta3trfTdZB1X/ziF9vbwPQRWkaoVEROOOGEdhmve93retf2628PSxtYzFVNKfrbwzJ4Meaq2nBotB4ArIwXvOAFzWWXXdZ88pOfbA/Offvb325+4zd+o133d3/3d+19tPDC9BBaRuioo45ql/fee2+7jP6B9e9973vbZX/VZJC0gnWrN7kOAJMoB/5uvPHGNqwkyPzJn/xJ8/M///PtOmB6CC0j9PrXv75dPvzwwweqIt0A09VfNSlK8OkOxI/uY+Y6AEyytIqlZSxtYvGJT3yi+YM/+IP2OjD5hJYRWrt2bXPdddf1bu0f23Luuef2bu3XvZ2v9495yfiV/kpKGecSqcwspDrD4mg9AKhHBudnkH4G669bt6753//7f7fr/+Ef/kGLNEy4Vb3lyDy9Q70vy7QxTYLswMakvB4GS1i54YYbmgsuuMC4FoDK3Hzzzc3HP/7x5qmnnmqe97znNe9+97ubd7zjHb2vAsuh7BvPzs6ONFeotAAAYyndCp/73OeaM844o3nyySeb3/3d3202btzYfOUrX+ndA5gUQgsMYPYwgHqlGv7mN7+5efnLX95s2bKl+bEf+7Fm586dbcXl/e9/f/Poo4/27gmMO6EFABh7p512Wjswvxxk+sM//MPmLW95i8H6MCGEFgBgYmQMYk7unJMxf+9732s++MEPtkHma1/7Wu8ewDgyEH9IZbARAAAUq1evbo499tjm9NNPb8dWTQsD8QEAYEzs3bu3uf/++5utW7f+0CkuOHQqLUMy5fF0MeUxALAQmfhh165dzaZNm5onnniiueiii6ai4qLSAhUwexhAvZwAmJoceeSRzcknn9xs3ry5vb1jx452ydIQWgAAYImsW7euXe7Zs6ddsjSEFgAAWCKpuETGuLB0hBYYQOsBQL208ML0EFoAAICqCS0AAEDVhBYYQOsBQL208ML0EFoAAICqCS0AAEDVhBYYQOsBQL208ML0EFoAAICqCS0AAEDVhBYYQOsBQL208ML0EFoAAICqCS0AAEDVhBYYQOsBQL208ML0EFoAAICqCS0AAEDVhBYYQOsBQL208ML0EFoAAICqCS0AAEDVhBYYQOsBQL208ML0EFoAAICqCS0AAEDVhBYYQOsBQL208ML0EFoAAICqCS0AAEDVhBYYQOsBQL208ML0EFoAAICqCS0AAEDVhBYYQOsBQL208ML0EFoAAICqCS0AAEDVhBYYQOsBQL208ML0EFoAAICqCS0AAEDVhBYYQOsBQL208ML0EFoAAICqCS0AAEDVhBYYQOsBQL208ML0EFoAAICqCS0AAEDVhBYYQOsBQL208ML0EFoAAICqCS0AAEDVhBYYQOsBQL208ML0EFoAAICqCS0AAEDVhBYYQOsBQL208ML0EFoAAICqCS1Mte9973vNm9/85vZI3Te/+c3e2oXJ/U899dTmpptu6q0BAGAUhBam2o/+6I+2gSUuuOCCNsR0zdd6kPtdffXV7XLt2rW9tQAsJy28MD2EFqbeVVdd1QaTBJBLLrmkt3Z+uV++J5WW17zmNc1JJ53U+woAAKMgtMDTPvzhDzfHHHNMe8QugWSQ7du3N3feeWdbpdmyZUvzvOc9r/cVAABGQWiBp5UAErfeemt7if7Wg6y/4YYb2vsn3CToALAyzB4G00NogZ60eqXiEqX9qyu3y9cTYjIIH4DRSTuuyVKAEFqgIx9w+YCM7sD8LMvA+1/8xV9sLwCM1sEmS5lPd5ttshSYDEIL9OkOzN+wYUN7/bzzzjsw8N4sNQDLp7tN7p8spb+FN3K/Ui03WQpMDqEF5lAG5j/00EPt7b//+78/MO4lSwCWj8lSAKEF5lA+7IrnP//57QelgfcAy6+7Te5OltLPZCkwuVb1liMzMzOzL8scHZkEpbd2Ul7PYm3btq3ZsWNHs2fPnmbv3r29tSzUy1/+8ua1r31tc9xxx7VL7QsAB5cKSmkR+/3f//3mrrvuakNKxruccsopB8a95D7GHrKSpml/sbzW2dnZkeYKlRaGtnHjxmbr1q3N/fffL7AsUtrN7rjjjuYjH/lI+yGbD9iHH36491UA5tI/Wco///M/t9ezNFkKTDaVliFNe6UlFZYElsMPP7zZvHlzs27duubII4/sfZWF+ta3vtU88MADzTe+8Y3my1/+cvOd73yneeELX9hcdtllzdlnn927FwBzKQPw16xZ0449TPU6B4My8L60h8FKUmlZeiotDCUtYZHAcvLJJwssi/SqV72qDScJKZ/5zGeaM844o3n88cebK6+8srn22mt79wJgLt3JUrI0WQpMPqGFoWQMS6xfv75dcuiOOOKI5gMf+EBz7rnntre//vWvt0sA5tYdmP/ggw8aeA9TQHvYkKa9PWzaX/8opSf7J3/yJ9vrf/VXf9Ucdthh7XWAYZks5dCYLIVDpT1s6am0QCUyrfIrX/nK9nrGuwAsRqq2Jks5NCZLgfqotAxJpUWlZZT+83/+z80XvvCF5oorrmje8pa39NYCLIzJUpbGfJOlXHrppQdmL4NBVFqWnkoLVGTt2rXtUqUFWAyTpSyN+SZLybgZk6XAyhBaoCKZrjN2797dLgGGYbKUpWeyFKiD0AIVKaFFpQVYjDKGJTvaLK2MbYlvfvObzVNPPdVeB5aP0AIVWb16dfOyl72sefLJJ9ueagDqYLIUWFlCC1SmVFtyNA+AemT649DCC8tPaIHKCC0AdTJZCqwcoQUqUz4UhRaAupgsBVaO0AKVKe0HQgtAXUyWAitHaIHKvPjFL25e8pKXNN/73vcOTF8KwMozWQqsHKEFKmSwJ0CdjDuElSG0QIUM9gSok9ACK0NogQqptADUyWQpsDKEFqiQSgtAnUyWAitDaIEKvfSlL22OOOKI5rvf/W7zyCOP9NYCsNJMlgIrQ2iBSplaE6BOWnhh+QktUCknMQOokxZeWH5CC1TKDDUAdVJpgeW3qrccmZmZmX1Z3nPPPe3tcXfiiSe2y0l5PcMqr5/JkhOmHXvssc3pp5/ebNy4sbcWGDfT/hm1XL797W83P/3TP9286EUvav74j/+4txaeMU1/i+W1zs7OjjRXqLQAzd69e5v777+/2bp1q9ACcBAmS4Hlp9IyJJUWR/Em0aOPPtrs2rWr2bRpU/PEE080F110kfACY8g2evm8+93vbr7yla801113XXPKKaf01sJ+Ki1LT6UFaI488sjm5JNPbjZv3tze3rFjR7sEYG4mS4HlJbQAB6xfv75dOvcAwGAmS4HlpT1sSNrDtB5MOu8xjK/y98tkMVnK+Jmmz9LyWrWHAQBMMZOlgErL0Kb9KLSj8JPPewzjy9/vZDJZyviZpr/F8lpVWgAAppjJUkBoAQAYC+vWrWuXJkthGgktAABjIBWXyBgXmDZCCwAAUDWhBQAAqJrQAgAAVE1oAQAAqia0AAAAVRNaAACAqgktAABA1YQWAACgakILAABQNaEFAAComtACAABUTWgBAACqJrQAAABVE1oAAICqCS0AAEDVhBYAAKBqQgsT4YorrmhOPPHE3i0AACaJ0MLU2r17dxt05rrka4uVAPWmN72pdwsAgEMltDD1zjvvvOaee+45cLnuuuuaDRs2LDp4PPLII71rAAAsBaEF+pxyyilteInzzz+/XQIAsHKEFkaqjDXpb8W6/vrre/d4xlztWrfcckvvq89YyGMVqZZ07zuMTZs2NbOzs896DnM9x9JKdtddd7W38z0PP/zwga8X5evdCwAABye0sCze+973Hmi/SjvWTTfd9KwwkOtpyeq2al1++eXNtdde+6xQkh3//vulHev222/v3eMZCQXHHHPMgfudddZZQwWFVFzivvvua5fxoQ996MDj5TIzM9O+tigVmqw7+uijD9yn+NSnPnVgXS65j0oOMK6y3c42NdvlQ5Xt/FI9FjCZhBaWxUc+8pHetaa58MIL22U3DCScJFSUr8U555zTrkvAKTZv3tyGgu79rrnmmjYAdJWgc+ONN7bL2LhxY7scVJnpl8ftjlHpPl688Y1vbKsqC/mg7f/eM888s63KlEoNwDTIwZqVOGCTUDTX5VCCUglutuMwekILy2Lt2rW9a/t1w0D5wHjd617XLrvKutwnHwoJCHPd74QTTuhd2++OO+5ow01XnkN/CDkUCT8JW4uRtrluGAOYFg8++GDv2jNyICoV6FLhHpUcCOtWvLdv395cfPHFbfBYDBOvwPIRWqjGUUcd1bv2jIWum0uqGN2jabkk9AzzIZP7d39e97EiLWwL0T8WJsErLW4ArJwczEp4yUEuU9VD3YQWqjFXmDiUo1j9R9TKpb9Naz5lzE1awCLVkSiP021RO5iMhUmVp3xvWt8AVlqZLKW0OeXSVdblspCd+v4DNLmU1qnyM3IwqBxUKo853/iYMtale+mXdXkd/fcdpmXrsssua59Xf/tw/2Qu5XMhcrtUzDPWMrfL8x/0/wAsjtDCiptrwHtR1uU+pb3rS1/6Uruuq38gftrF7r333t6txSnjbMrzS4DKz+9aaKhKO0QmBeg6lEAGsJRuvvnmAwdVoux0dw/+ZBt2sOAyaLKSHKzJumxHsz7Xv/CFL7Rfm0vGvSQUpIWr+3hzBYDyGVDul5+RILFQ5fOl+zmUIJTxmOUxUx3P50L52WVdlOdYPi8G/T8AiyO0UIW0WeVDp3uUK0e0sq7bglUGr3ePds01oDOD7nPUrP9r+cA92NGuHCnLh2I+ZDLIv0ibWB6zHEnLcq5xKeV+Xfmw7w66L68NoAaZ4r1r27Zt7U58dxv49re/vd22dbe//Q5lspKu/IxsM3Oy3+6YyPL4eX5d2V53q9/nnntuuxzm52Y73R1vk9fe/dlnnHFGu/ziF7/YLgdZqv8H4BlCC1XIEbh8OCUElFJ6jmjl6FW3lSofSuVoV7lfPgxyNLCr9Cn3j2vJUbPuh1B0f2YuGZSZ7+3/0MkHWD4Yy6DNzGQ215iW8iFfHi/yWOXIX9alWmRMC1CL/gHwOajSP8FJt+q8EIcyWUm3yt4v2+H+Snr/WMdye6kq2gkbw1Ruug7l/wF4htDCSGUHPgGgX1oC+kNBPpxKKb1c+gNGlFlmyiWhZr6f071fLt3HK8Fmrst88pzLffIaSrtD/wdruU8uRe5f1uVxyuuY6zUCrLQEl3LwpXsQZlAQ6L/vQicrmUsO9MylP6Aslf423lTqy2vJebZyEG2hlvL/AdhPaAEAfkiqweVAS/dSqsn9DmWykrn0t9kWoxgPmEpKfl6ZeKXbnpbX0n+QbZCl/n8A9hNaAIBnSQvWXJOjDJIw0V8dWWzA6J6jq1/CRH/r2qEqJy4u7cjlea9Zs6ZdxkMPPdS7NthS/j8AzxBaAIBnyaD7hINSNShKu9NcFjpZSf+A97kkPJQxhN3JU8rkKvNVe4aVxy6vqVtNKS1o3UH3eS79yv26gWah/w/AcIQWAOBZMk4vYzj6x7Wk3Wk+CRILmayknBMl9xk0hXJCRCZZKROY5BKDnsPB9L+ePHZeZ//UywlNaY/rTtSSVrF+3XCV+ySgLPT/ARjOqt5yZJ7+w92X5aFsZGqSDVBMyusZ1rS//mngPYbx5e938nmPx8M0vU/ltc7Ozo40V6i0AAAAVRNaAACAqgktAABA1YQWAACgakILAABQNaEFAAComtACAABUTWgBAACqJrQAAABVE1oAAICqCS0AAEDVhBYAAKBqQgsAAFA1oQUAAKia0MJQVq9e3S4fe+yxdslkKe9reZ8BAGogtDCUY489tl3u3LmzXTJZyvta3mcAgBoILQzl9NNPb5ebNm1q7r777ubRRx9tbzPe8j7m/cz7GuV9BgCowarecmRmZmb2ZXnPPfe0t8fdiSee2C4n5fUsxsaNG1VaJtj69eubbdu29W4B48Rn1OTzHo+HaXqfymudnZ0daa5QaWFo2aG96KKLmuOPP97YhwmR9zHvZ95XgQUAqI1Ky5Ac4QCgVqeddlqzd+/eZseOHc0RRxzRW8ukSCvvv/t3/6490PSnf/qnvbXUSKVl6am0AMCEMFnKZNu1a1e7NFkK00hoAYAJYbKUyVQmS7n88svb2yZLYRppDxuS9jAAamaylMlmspTxoD1s6am0AMAEMVnK5DFZCqi0DE2lBQCAQVRalp5KCwAAUDWhBQAAqJrQAgAAVE1oAQAAqia0AAAAVRNaAACAqgktAABA1YQWAACgakILAABQNaEFAAComtACAABUTWgBAACqJrQAAABVE1oAAICqCS0AAEDVhBYAAKBqQgsAAFA1oQUAAKia0AIAAFRNaAEAAKomtAAAAFUTWgAAgKoJLQAAQNWEFgAAoGpCCwAAUDWhBQAAqJrQAgAAVE1oAQAAqia0AAAAVRNaAACAqgktAABA1YQWAACgakILAABQNaEFAAComtACAABUTWgBAACqJrQAAABVE1oAAICqCS0AAEDVhBYAAKBqQgsAAFA1oQUAAKia0AIAAFRNaAEAAKomtAAAAFUTWgAAgKoJLQAAQNWEFgAAoGpCCwAAUDWhBQAAqJrQAgAAVE1oAQAAqia0AAAAVRNaAACAqgktAABA1YQWAACgakILAABQNaEFAAComtACAABUTWgBAACqJrQAAABVE1oAAICqCS0AAEDVhBYAAKBqQgsAAFA1oQUAAKia0AIAAFRNaAEAAKomtAAAAFUTWgAAgKoJLQAAQNWEFgAAoGpCCwAAUDWhBQAAqJrQAgAAVE1oAQAAqia0AAAAVRNaAACAqgktAABA1YQWAACgakILAABQNaEFAAComtACAABUTWgBAACqJrQAAABVE1oAAICqCS0AAEDVhJYhrV69ul0++uij7RIAAIqyj1j2GVkaQsuQjj322Ha5a9eudgkAAEXZRyz7jCwNoWVIp59+ervctGlTc/fdd6u4AADQ7hNm3/Dyyy9vb5d9RpbGqt5yZGZmZvZlec8997S3J8HGjRubnTt39m4BAMAz1q9f32zbtq13a7KdeOKJ7XJ2dnakuUKlZRHyS3jRRRc1xx9/vH5FAADafcLsG2YfcVoCy3JSaQEAABZFpQUAAOBpQgsAAFA1oQUAAKia0AIAAFRNaAEAAKomtAAAAFUTWgAAgKoJLQAAQNWEFgAAoGpCCwAAUDWhBQAAqJrQAgAAVE1oAQAAqia0AAAAVRNaAACAqgktAABA1YQWAACgakILAABQNaEFAAComtACAABUTWgBAACqJrQAAABVE1oAAICqCS0AAEDVhBYAAKBqQgsAAFA1oQUAAKia0AIAAFRNaAEAAKomtAAAAFUTWgAAgKoJLQAAQNWEFgAAoGpCCwAAUDWhBQAAqJrQAgAAVE1oAQAAqia0AAAAVRNaAACAqgktAABA1YQWAACgakILAABQNaEFAAComtACAABUbeShZd++ff87y0cffbS9DQAAjL+yf1/290dpOSotf51/du3a1d4AAADGX2f/vt3fH6WRh5ZVq1b9f1lu2rSpufvuu1VcAABgjGV/Pvv1l19+eXu77O+P0qrecqROOOGErzz9Yv6f3k0AAGAC7Nu376/uvffe/7d3c2QO6y1H6uGHH/7kmjVr/unpF7X66Zs/8nSA+b/2fwUAABgnvTEs9z29T//RpwPLf9i/FgAAAAAAAAAAAAAAAAAAAAAAAAAAAAAAAAAAAAAAAAAAAAAAAAAAAAAAAAAAAAAAAAAAAAAAAAAAAAAAAAAAAAAAAAAAAAAAAAAAAKZV0/z/X9t4SBxMBM4AAAAASUVORK5CYII=;" vertex="1" parent="1">
          <mxGeometry x="90" y="-30" width="813" height="1065" as="geometry" />
        </mxCell>
        <mxCell id="0Sa0RzDgu2V99FZ1Wu_b-2" value="QuestionUI" style="shape=folder;fontStyle=1;spacingTop=10;tabWidth=40;tabHeight=14;tabPosition=left;html=1;" vertex="1" parent="1">
          <mxGeometry x="430" y="130" width="110" height="90" as="geometry" />
        </mxCell>
        <mxCell id="0Sa0RzDgu2V99FZ1Wu_b-4" value="BayesService" style="shape=folder;fontStyle=1;spacingTop=10;tabWidth=40;tabHeight=14;tabPosition=left;html=1;" vertex="1" parent="1">
          <mxGeometry x="-40" y="390" width="100" height="90" as="geometry" />
        </mxCell>
        <mxCell id="0Sa0RzDgu2V99FZ1Wu_b-5" value="BertService" style="shape=folder;fontStyle=1;spacingTop=10;tabWidth=40;tabHeight=14;tabPosition=left;html=1;" vertex="1" parent="1">
          <mxGeometry x="910" y="390" width="100" height="90" as="geometry" />
        </mxCell>
        <mxCell id="0Sa0RzDgu2V99FZ1Wu_b-6" value="Use" style="endArrow=open;endSize=12;dashed=1;html=1;exitX=0.5;exitY=1;exitDx=0;exitDy=0;exitPerimeter=0;entryX=0;entryY=0;entryDx=100;entryDy=52;entryPerimeter=0;" edge="1" parent="1" source="0Sa0RzDgu2V99FZ1Wu_b-2" target="0Sa0RzDgu2V99FZ1Wu_b-4">
          <mxGeometry width="160" relative="1" as="geometry">
            <mxPoint x="400" y="390" as="sourcePoint" />
            <mxPoint x="560" y="390" as="targetPoint" />
          </mxGeometry>
        </mxCell>
        <mxCell id="0Sa0RzDgu2V99FZ1Wu_b-7" value="Use" style="endArrow=open;endSize=12;dashed=1;html=1;entryX=0;entryY=0;entryDx=0;entryDy=52;entryPerimeter=0;" edge="1" parent="1" target="0Sa0RzDgu2V99FZ1Wu_b-5">
          <mxGeometry width="160" relative="1" as="geometry">
            <mxPoint x="490" y="220" as="sourcePoint" />
            <mxPoint x="560" y="390" as="targetPoint" />
          </mxGeometry>
        </mxCell>
        <mxCell id="0Sa0RzDgu2V99FZ1Wu_b-8" value="SanGuoZhi Data(NOT FOR&amp;nbsp;visualization)" style="shape=folder;fontStyle=1;spacingTop=10;tabWidth=40;tabHeight=14;tabPosition=left;html=1;" vertex="1" parent="1">
          <mxGeometry x="305" y="1090" width="360" height="175" as="geometry" />
        </mxCell>
        <mxCell id="0Sa0RzDgu2V99FZ1Wu_b-9" value="Use" style="endArrow=open;endSize=12;dashed=1;html=1;exitX=0.5;exitY=1;exitDx=0;exitDy=0;exitPerimeter=0;entryX=0;entryY=0;entryDx=200;entryDy=14;entryPerimeter=0;" edge="1" parent="1" source="0Sa0RzDgu2V99FZ1Wu_b-4" target="0Sa0RzDgu2V99FZ1Wu_b-8">
          <mxGeometry width="160" relative="1" as="geometry">
            <mxPoint x="400" y="690" as="sourcePoint" />
            <mxPoint x="560" y="690" as="targetPoint" />
            <Array as="points">
              <mxPoint y="890" />
              <mxPoint x="90" y="1030" />
            </Array>
          </mxGeometry>
        </mxCell>
        <mxCell id="0Sa0RzDgu2V99FZ1Wu_b-10" value="Use" style="endArrow=open;endSize=12;dashed=1;html=1;exitX=0.5;exitY=1;exitDx=0;exitDy=0;exitPerimeter=0;" edge="1" parent="1" source="0Sa0RzDgu2V99FZ1Wu_b-5">
          <mxGeometry width="160" relative="1" as="geometry">
            <mxPoint x="400" y="890" as="sourcePoint" />
            <mxPoint x="500" y="1100" as="targetPoint" />
            <Array as="points">
              <mxPoint x="960" y="910" />
              <mxPoint x="910" y="1040" />
            </Array>
          </mxGeometry>
        </mxCell>
      </root>
    </mxGraphModel>
  </diagram>
</mxfile>
